<?xml version="1.0" encoding="UTF-8"?>
<svg width="297mm" height="210mm" version="1.1" viewBox="0 0 1052.3622 744.09448" xmlns="http://www.w3.org/2000/svg" xmlns:xlink="http://www.w3.org/1999/xlink">
 <defs>
  <linearGradient id="o">
   <stop stop-color="#fff" offset="0"/>
   <stop stop-color="#fff" stop-opacity="0" offset="1"/>
  </linearGradient>
  <linearGradient id="n">
   <stop stop-color="#9bcafa" offset="0"/>
   <stop stop-color="#4c6988" offset="1"/>
  </linearGradient>
  <linearGradient id="m">
   <stop stop-color="#b6b6b6" offset="0"/>
   <stop stop-color="#5a5a5a" offset="1"/>
  </linearGradient>
  <linearGradient id="p" x1="643.59" x2="638.79" y1="376.52" y2="369.58" gradientTransform="matrix(.98841 0 0 .98841 1.28 11.681)" gradientUnits="userSpaceOnUse" xlink:href="#m"/>
  <radialGradient id="w" cx="641.03" cy="373.08" r="4.7364" gradientTransform="matrix(.98841 0 0 .98841 1.28 11.681)" gradientUnits="userSpaceOnUse" xlink:href="#n"/>
  <linearGradient id="r" x1="641.09" x2="641.09" y1="366.11" y2="372.05" gradientTransform="matrix(.98841 0 0 .98841 -273.99 278.3)" gradientUnits="userSpaceOnUse" xlink:href="#o"/>
  <linearGradient id="t" x1="679.46" x2="714.05" y1="1014.8" y2="964.29" gradientTransform="matrix(.98841 0 0 .98841 1.28 11.681)" gradientUnits="userSpaceOnUse">
   <stop stop-color="#b1b1b1" offset="0"/>
   <stop stop-color="#f3f3f3" offset=".50692"/>
   <stop stop-color="#6d6d6d" offset="1"/>
  </linearGradient>
  <linearGradient id="q" x1="643.59" x2="638.79" y1="376.52" y2="369.58" gradientTransform="translate(819.67 -7.2883)" gradientUnits="userSpaceOnUse" xlink:href="#m"/>
  <radialGradient id="x" cx="641.03" cy="373.08" r="4.7364" gradientTransform="translate(819.67 -7.2883)" gradientUnits="userSpaceOnUse" xlink:href="#n"/>
  <linearGradient id="s" x1="641.09" x2="641.09" y1="366.11" y2="372.05" gradientTransform="translate(441.08 674.2)" gradientUnits="userSpaceOnUse" xlink:href="#o"/>
  <linearGradient id="u" x1="1455.2" x2="1732.7" y1="392.22" y2="960.22" gradientUnits="userSpaceOnUse">
   <stop stop-color="#cacaca" offset="0"/>
   <stop stop-color="#a5a5a5" offset="1"/>
  </linearGradient>
  <linearGradient id="v" x1="1582" x2="1588.6" y1="1009.7" y2="984.2" gradientUnits="userSpaceOnUse">
   <stop stop-color="#cdcdcd" offset="0"/>
   <stop stop-color="#fff" offset=".48325"/>
   <stop stop-color="#8f8f8f" offset="1"/>
  </linearGradient>
 </defs>
 <g transform="translate(0 -308.27)">
  <path d="m325.26 992.42a25.721 25.721 0 0 1 -25.721 25.721 25.721 25.721 0 0 1 -25.721 -25.721 25.721 25.721 0 0 1 25.721 -25.721 25.721 25.721 0 0 1 25.721 25.721zm-177.73-573.48h303.22v535.26h-303.22zm128.26-41.965h47.049c1.0531 0 1.901 0.84783 1.901 1.901s-0.84783 1.901-1.901 1.901h-47.049c-1.0532 0-1.901-0.84785-1.901-1.901s0.84783-1.901 1.901-1.901zm-25.025 3.7764a5.8983 5.8983 0 0 1 -5.8983 5.8983 5.8983 5.8983 0 0 1 -5.8983 -5.8983 5.8983 5.8983 0 0 1 5.8983 -5.8983 5.8983 5.8983 0 0 1 5.8983 5.8983zm52.67-20.918a4.1204 4.1204 0 0 1 -4.1204 4.1204 4.1204 4.1204 0 0 1 -4.1204 -4.1204 4.1204 4.1204 0 0 1 4.1204 -4.1204 4.1204 4.1204 0 0 1 4.1204 4.1204zm-134.9-16.688h261.21c18.045 0 32.572 14.527 32.572 32.572v622.02c0 18.045-14.527 32.572-32.572 32.572h-261.21c-18.045 0-32.572-14.527-32.572-32.572v-622.02c0-18.045 14.527-32.572 32.572-32.572zm1.9751-5.8042h257.26c22.467 0 40.554 16.706 40.554 39.173v620.31c0 22.467-18.087 39.773-40.554 39.773h-257.26c-22.467 0-40.554-17.306-40.554-39.773v-620.31c0-22.467 18.087-39.173 40.554-39.173z" fill="none" stroke="#5a5a5a" stroke-width=".75"/>
  <path d="m933.94 394.88h320.71c2.8838 0 5.2055 2.3216 5.2055 5.2055v544.34c0 2.8838-2.3217 5.2055-5.2055 5.2055h-320.71c-2.8838 0-5.2055-2.3216-5.2055-5.2055v-544.34c0-2.8838 2.3216-5.2055 5.2055-5.2055zm135.3 588.73h49.382c7.3053 0 13.186 5.8812 13.186 13.186 0 7.3053-5.8812 13.186-13.186 13.186h-49.382c-7.3053 0-13.186-5.8812-13.186-13.186 0-7.3053 5.8812-13.186 13.186-13.186zm-10.018-622.17h70.14c1.9826 0 3.5786 1.5961 3.5786 3.5786s-1.596 3.5786-3.5786 3.5786h-70.14c-1.9825 0-3.5786-1.5961-3.5786-3.5786s1.5961-3.5786 3.5786-3.5786zm-27.562 3.7959a4.011 4.011 0 0 1 -4.011 4.011 4.011 4.011 0 0 1 -4.011 -4.011 4.011 4.011 0 0 1 4.011 -4.011 4.011 4.011 0 0 1 4.011 4.011zm-11.247 0a4.011 4.011 0 0 1 -4.011 4.011 4.011 4.011 0 0 1 -4.011 -4.011 4.011 4.011 0 0 1 4.011 -4.011 4.011 4.011 0 0 1 4.011 4.011zm-21.033 0a6.6151 6.6151 0 0 1 -6.6151 6.615 6.6151 6.6151 0 0 1 -6.615 -6.615 6.6151 6.6151 0 0 1 6.615 -6.615 6.6151 6.6151 0 0 1 6.6151 6.615zm-26.799-20.93h243.42c30.547 0 55.139 24.592 55.139 55.139v575.08c0 30.547-24.592 55.139-55.139 55.139h-243.42c-30.547 0-55.139-24.592-55.139-55.139v-575.08c0-30.547 24.592-55.139 55.139-55.139zm-1.5003-6.9521h246.42c33.782 0 60.979 27.197 60.979 60.979v577.3c0 33.782-27.197 60.979-60.979 60.979h-246.42c-33.782 0-60.979-27.197-60.979-60.979v-577.3c0-33.782 27.197-60.979 60.979-60.979z" fill="none" stroke="#5a5a5a" stroke-width=".75"/>
  <g fill-rule="evenodd">
   <path d="m560.45 336.98h257.53c22.491 0 40.597 16.724 40.597 39.215v620.97c0 22.491-18.106 39.815-40.597 39.815h-257.53c-22.491 0-40.597-17.324-40.597-39.815v-620.97c0-22.491 18.106-39.215 40.597-39.215z" fill="#cfcfcf"/>
   <path d="m558.47 343.31h261.49c18.064 0 32.607 14.543 32.607 32.607v622.67c0 18.064-14.543 32.607-32.607 32.607h-261.49c-18.064 0-32.607-14.543-32.607-32.607v-622.67c0-18.064 14.543-32.607 32.607-32.607z" fill="#fff"/>
   <path d="m693.51 359.49a4.1248 4.1248 0 0 1 -4.1248 4.1248 4.1248 4.1248 0 0 1 -4.1248 -4.1248 4.1248 4.1248 0 0 1 4.1248 -4.1248 4.1248 4.1248 0 0 1 4.1248 4.1248z" fill="#5a5a5a"/>
   <path d="m665.84 376.65h47.099c1.0543 0 1.903 0.84872 1.903 1.903s-0.84874 1.903-1.903 1.903h-47.099c-1.0543 0-1.903-0.84874-1.903-1.903s0.84873-1.903 1.903-1.903z" fill="#5a5a5a"/>
   <path d="m537.44 418.66h303.55v535.83h-303.55z" fill="#323232"/>
   <path d="m715.36 992.75a25.748 25.748 0 0 1 -25.748 25.748 25.748 25.748 0 0 1 -25.748 -25.748 25.748 25.748 0 0 1 25.748 -25.748 25.748 25.748 0 0 1 25.748 25.748z" fill="#fff" stroke="url(#t)" stroke-width="3.9536"/>
   <path d="m641.31 380.43a6.4287 6.4287 0 0 1 -6.4288 6.4288 6.4287 6.4287 0 0 1 -6.4288 -6.4288 6.4287 6.4287 0 0 1 6.4288 -6.4287 6.4287 6.4287 0 0 1 6.4288 6.4287z" fill="url(#p)"/>
   <path d="m639.56 380.43a4.6815 4.6815 0 0 1 -4.6815 4.6815 4.6815 4.6815 0 0 1 -4.6815 -4.6815 4.6815 4.6815 0 0 1 4.6815 -4.6815 4.6815 4.6815 0 0 1 4.6815 4.6815z" fill="url(#w)"/>
   <ellipse transform="matrix(.86603 -.5 .5 .86603 0 0)" cx="359.61" cy="645.23" rx="3.6484" ry="2.6872" fill="url(#r)" opacity=".678"/>
  </g>
  <g transform="matrix(.98937 0 0 .98937 -52.678 11.026)" fill-rule="evenodd">
   <rect x="1397.6" y="329.46" width="372.74" height="707.52" ry="61.7" fill="url(#u)"/>
   <rect x="1405" y="336.49" width="357.88" height="693.45" ry="55.791" fill="#323232" stroke="#5a5a5a" stroke-width=".75"/>
   <circle cx="1505.1" cy="357.67" r="4.0584" fill="#5a5a5a"/>
   <circle cx="1516.5" cy="357.67" r="4.0584" fill="#5a5a5a"/>
   <rect x="1544.8" y="353.83" width="78.211" height="7.2418" ry="3.6209" fill="#5a5a5a"/>
   <rect x="1545.2" y="983.35" width="76.65" height="26.685" ry="13.342" fill="#323232" stroke="url(#v)" stroke-width="2"/>
   <rect x="1416.4" y="387.66" width="335.03" height="561.31" ry="5.267" fill="#494949" stroke="#545454"/>
   <g transform="matrix(1.3459 0 0 1.3459 -484.81 -134.66)">
    <path d="m1467.2 365.79a6.5041 6.5041 0 0 1 -6.5041 6.5041 6.5041 6.5041 0 0 1 -6.5042 -6.5041 6.5041 6.5041 0 0 1 6.5042 -6.5041 6.5041 6.5041 0 0 1 6.5041 6.5041z" fill="url(#q)"/>
    <path d="m1465.4 365.79a4.7364 4.7364 0 0 1 -4.7363 4.7364 4.7364 4.7364 0 0 1 -4.7364 -4.7364 4.7364 4.7364 0 0 1 4.7364 -4.7364 4.7364 4.7364 0 0 1 4.7363 4.7364z" fill="url(#x)"/>
    <ellipse transform="matrix(.86603 -.5 .5 .86603 0 0)" cx="1082.1" cy="1045.4" rx="3.6911" ry="2.7188" fill="url(#s)" opacity=".678"/>
   </g>
  </g>
 </g>
</svg>
